# xmcd
#
# Track frame offsets: 
#        150
#        14138
#        25895
#        35502
#        49022
#        61566
#        69988
#        82873
#        95382
#        108855
#        119885
#        133381
#
# Disc length: 1916 seconds
#
# Revision: 0
# Processed by: cddbd v1.5.2PL0 Copyright (c) Steve Scherf et al.
# Submitted via: ExactAudioCopy v1.3
#
DISCID=9e077a0c
DTITLE=Porter Wagoner and Penny DeHaven - Porter and Penny
DYEAR=2004
DGENRE=Country
TTITLE0=Daddy Was An Old Time Preacher Man
TTITLE1=Just Someone I Used To Know
TTITLE2=If Teardrops Were Pennies
TTITLE3=Forty Miles From Poplar Bluff
TTITLE4=Holdin' On To Nothin'
TTITLE5=Burning The Midnight Oil
TTITLE6=Each Season Changes You
TTITLE7=Please Don't Stop Lovin' Me
TTITLE8=The Right Combination
TTITLE9=Move It On Home
TTITLE10=The Last Thing On My Mind
TTITLE11=Milwaukee Here I Come
EXTD=
EXTT0=
EXTT1=
EXTT2=
EXTT3=
EXTT4=
EXTT5=
EXTT6=
EXTT7=
EXTT8=
EXTT9=
EXTT10=
EXTT11=
PLAYORDER=
